<svg width="35" height="33" viewBox="0 0 35 33" fill="none" xmlns="http://www.w3.org/2000/svg">
<path d="M13.125 28.875H21.875" stroke="#33363F" stroke-width="2" stroke-linecap="round"/>
<path d="M17.5 28.875V22" stroke="#33363F" stroke-width="2" stroke-linecap="round"/>
<mask id="path-3-inside-1_151_51" fill="white">
<path d="M7.29167 12.7679C7.29167 12.0486 7.29167 11.689 7.46808 11.4328C7.53721 11.3324 7.62411 11.2455 7.7245 11.1764C7.98065 11 8.34028 11 9.05953 11H25.9405C26.6597 11 27.0194 11 27.2755 11.1764C27.3759 11.2455 27.4628 11.3324 27.5319 11.4328C27.7083 11.689 27.7083 12.0486 27.7083 12.7679V13.1667C27.7083 17.1027 27.7083 19.0707 26.8208 20.5156C26.3275 21.3186 25.6519 21.9941 24.8489 22.4874C23.404 23.375 21.436 23.375 17.5 23.375C13.564 23.375 11.596 23.375 10.1511 22.4874C9.34808 21.9941 8.67255 21.3186 8.17925 20.5156C7.29167 19.0707 7.29167 17.1027 7.29167 13.1667V12.7679Z"/>
</mask>
<path d="M7.29167 12.7679C7.29167 12.0486 7.29167 11.689 7.46808 11.4328C7.53721 11.3324 7.62411 11.2455 7.7245 11.1764C7.98065 11 8.34028 11 9.05953 11H25.9405C26.6597 11 27.0194 11 27.2755 11.1764C27.3759 11.2455 27.4628 11.3324 27.5319 11.4328C27.7083 11.689 27.7083 12.0486 27.7083 12.7679V13.1667C27.7083 17.1027 27.7083 19.0707 26.8208 20.5156C26.3275 21.3186 25.6519 21.9941 24.8489 22.4874C23.404 23.375 21.436 23.375 17.5 23.375C13.564 23.375 11.596 23.375 10.1511 22.4874C9.34808 21.9941 8.67255 21.3186 8.17925 20.5156C7.29167 19.0707 7.29167 17.1027 7.29167 13.1667V12.7679Z" stroke="#33363F" stroke-width="4" stroke-linecap="round" mask="url(#path-3-inside-1_151_51)"/>
<path d="M16.543 16.21C16.3828 16.7385 16.6814 17.2969 17.21 17.457C17.7385 17.6172 18.2969 17.3186 18.457 16.79L16.543 16.21ZM20.1308 7.81845L19.1737 7.52844H19.1737L20.1308 7.81845ZM21.3391 6.52713L20.9862 5.59146L21.3391 6.52713ZM20.5006 6.95349L19.7704 6.27025L19.7704 6.27025L20.5006 6.95349ZM18.457 16.79L21.0878 8.10845L19.1737 7.52844L16.543 16.21L18.457 16.79ZM21.6919 7.46279L28.0612 5.06067L27.3555 3.18933L20.9862 5.59146L21.6919 7.46279ZM21.0878 8.10845C21.1629 7.86054 21.2017 7.73563 21.2367 7.64846C21.2644 7.57923 21.2647 7.60047 21.2307 7.63673L19.7704 6.27025C19.4145 6.65056 19.2855 7.15981 19.1737 7.52844L21.0878 8.10845ZM20.9862 5.59146C20.6258 5.72738 20.1262 5.88994 19.7704 6.27025L21.2307 7.63673C21.1968 7.67299 21.1756 7.67417 21.2428 7.64186C21.3275 7.60118 21.4496 7.55421 21.6919 7.46279L20.9862 5.59146Z" fill="#33363F"/>
</svg>
