<svg width="13" height="15" viewBox="0 0 13 15" fill="none" xmlns="http://www.w3.org/2000/svg">
<path d="M0.542976 13.21C0.382809 13.7385 0.681443 14.2969 1.20999 14.457C1.73854 14.6172 2.29686 14.3186 2.45702 13.79L0.542976 13.21ZM4.13077 4.81845L3.17375 4.52844H3.17375L4.13077 4.81845ZM5.33906 3.52713L4.98618 2.59146L5.33906 3.52713ZM4.50055 3.95349L3.77036 3.27025L3.77036 3.27025L4.50055 3.95349ZM2.45702 13.79L5.0878 5.10845L3.17375 4.52844L0.542976 13.21L2.45702 13.79ZM5.69194 4.46279L12.0612 2.06067L11.3555 0.189332L4.98618 2.59146L5.69194 4.46279ZM5.0878 5.10845C5.16292 4.86054 5.20169 4.73563 5.23667 4.64846C5.26445 4.57923 5.26467 4.60047 5.23074 4.63673L3.77036 3.27025C3.4145 3.65056 3.28545 4.15981 3.17375 4.52844L5.0878 5.10845ZM4.98618 2.59146C4.62578 2.72738 4.12622 2.88994 3.77036 3.27025L5.23074 4.63673C5.19682 4.67299 5.1756 4.67417 5.24284 4.64186C5.32749 4.60118 5.44956 4.55421 5.69194 4.46279L4.98618 2.59146Z" fill="#33363F"/>
</svg>
